<svg width="219" height="59" viewBox="0 0 219 59" fill="#fff" xmlns="http://www.w3.org/2000/svg">
<path d="M28.0682 24.4545C28.0682 27.5227 27.5142 30.1742 26.4062 32.4091C25.2983 34.6439 23.7784 36.3674 21.8466 37.5795C19.9148 38.7917 17.7083 39.3977 15.2273 39.3977C12.7462 39.3977 10.5398 38.7917 8.60795 37.5795C6.67614 36.3674 5.15625 34.6439 4.0483 32.4091C2.94034 30.1742 2.38636 27.5227 2.38636 24.4545C2.38636 21.3864 2.94034 18.7348 4.0483 16.5C5.15625 14.2652 6.67614 12.5417 8.60795 11.3295C10.5398 10.1174 12.7462 9.51136 15.2273 9.51136C17.7083 9.51136 19.9148 10.1174 21.8466 11.3295C23.7784 12.5417 25.2983 14.2652 26.4062 16.5C27.5142 18.7348 28.0682 21.3864 28.0682 24.4545ZM24.6591 24.4545C24.6591 21.9356 24.2377 19.8097 23.3949 18.0767C22.5616 16.3438 21.4299 15.0322 20 14.142C18.5795 13.2519 16.9886 12.8068 15.2273 12.8068C13.4659 12.8068 11.8703 13.2519 10.4403 14.142C9.01989 15.0322 7.88826 16.3438 7.04545 18.0767C6.21212 19.8097 5.79545 21.9356 5.79545 24.4545C5.79545 26.9735 6.21212 29.0994 7.04545 30.8324C7.88826 32.5653 9.01989 33.8769 10.4403 34.767C11.8703 35.6572 13.4659 36.1023 15.2273 36.1023C16.9886 36.1023 18.5795 35.6572 20 34.767C21.4299 33.8769 22.5616 32.5653 23.3949 30.8324C24.2377 29.0994 24.6591 26.9735 24.6591 24.4545ZM57.0597 9.90909V39H53.6506L37.7983 16.1591H37.5142V39H33.9915V9.90909H37.4006L53.3097 32.8068H53.5938V9.90909H57.0597ZM114.199 26.4219V35.9922L117.383 36.5391V39H107.168V36.5391L110.352 35.9922V13.5898L107.168 13.043V10.5625H128.555V17.3984H125.469L125.039 13.5508H114.199V23.3945H124.609V26.4219H114.199ZM134.833 39H131.14L141.822 9.90909H145.458L156.14 39H152.447L143.754 14.5114H143.526L134.833 39ZM136.197 27.6364H151.083V30.7614H136.197V27.6364ZM160.671 39V9.90909H170.501C172.773 9.90909 174.639 10.2973 176.097 11.0739C177.556 11.8409 178.635 12.8968 179.336 14.2415C180.037 15.5862 180.387 17.1155 180.387 18.8295C180.387 20.5436 180.037 22.0634 179.336 23.3892C178.635 24.715 177.56 25.7566 176.112 26.5142C174.663 27.2623 172.811 27.6364 170.558 27.6364H162.603V24.4545H170.444C171.997 24.4545 173.247 24.2273 174.194 23.7727C175.15 23.3182 175.842 22.6742 176.268 21.8409C176.703 20.9981 176.921 19.9943 176.921 18.8295C176.921 17.6648 176.703 16.6468 176.268 15.7756C175.832 14.9044 175.136 14.232 174.18 13.7585C173.223 13.2756 171.959 13.0341 170.387 13.0341H164.194V39H160.671ZM174.364 25.9318L181.523 39H177.433L170.387 25.9318H174.364ZM186.257 9.90909H190.462L200.348 34.0568H200.689L210.575 9.90909H214.78V39H211.484V16.8977H211.2L202.109 39H198.928L189.837 16.8977H189.553V39H186.257V9.90909Z" fill="#37F54A"/>
<path d="M69.7685 21H68.3835L72.3892 10.0909H73.7528L77.7585 21H76.3736L73.1136 11.8168H73.0284L69.7685 21ZM70.2798 16.7386H75.8622V17.9105H70.2798V16.7386ZM88.1083 10.0909V21H86.8299L80.8853 12.4347H80.7788V21H79.4577V10.0909H80.7362L86.7021 18.6776H86.8086V10.0909H88.1083ZM94.1182 21H90.7517V10.0909H94.2673C95.3256 10.0909 96.2311 10.3093 96.9839 10.7461C97.7368 11.1793 98.3138 11.8026 98.7151 12.6158C99.1164 13.4254 99.317 14.3949 99.317 15.5241C99.317 16.6605 99.1146 17.6388 98.7098 18.4592C98.305 19.2759 97.7155 19.9045 96.9413 20.3448C96.1672 20.7816 95.2261 21 94.1182 21ZM92.0727 19.8281H94.0329C94.9349 19.8281 95.6824 19.6541 96.2755 19.3061C96.8685 18.9581 97.3106 18.4627 97.6018 17.82C97.893 17.1772 98.0386 16.4119 98.0386 15.5241C98.0386 14.6435 97.8948 13.8853 97.6072 13.2496C97.3195 12.6104 96.8898 12.1204 96.3181 11.7795C95.7464 11.435 95.0344 11.2628 94.1821 11.2628H92.0727V19.8281ZM68.7244 29.2628V28.0909H76.9062V29.2628H73.4759V39H72.1548V29.2628H68.7244ZM78.945 39V28.0909H80.2661V32.9489H86.0828V28.0909H87.4039V39H86.0828V34.1207H80.2661V39H78.945ZM90.0486 39V28.0909H96.6324V29.2628H91.3696V32.9489H96.2915V34.1207H91.3696V37.8281H96.7176V39H90.0486Z" fill="#37F54A"/>
</svg>
